<?xml version="1.0" encoding="UTF-8" standalone="no"?><svg xmlns="http://www.w3.org/2000/svg" xmlns:xlink="http://www.w3.org/1999/xlink" contentScriptType="application/ecmascript" contentStyleType="text/css" height="408px" preserveAspectRatio="none" style="width:458px;height:408px;" version="1.1" viewBox="0 0 458 408" width="458px" zoomAndPan="magnify"><defs><filter height="300%" id="f1k7d6a5w4h2k3" width="300%" x="-1" y="-1"><feGaussianBlur result="blurOut" stdDeviation="2.0"/><feColorMatrix in="blurOut" result="blurOut2" type="matrix" values="0 0 0 0 0 0 0 0 0 0 0 0 0 0 0 0 0 0 .4 0"/><feOffset dx="4.0" dy="4.0" in="blurOut2" result="blurOut3"/><feBlend in="SourceGraphic" in2="blurOut3" mode="normal"/></filter></defs><g><!--MD5=[344cf06d09e679532e9df80d95990f97]
class IHttpClient--><rect fill="#FEFECE" filter="url(#f1k7d6a5w4h2k3)" height="60.8047" id="IHttpClient" style="stroke: #A80036; stroke-width: 1.5;" width="357" x="47" y="142"/><ellipse cx="188.25" cy="158" fill="#B4A7E5" rx="11" ry="11" style="stroke: #A80036; stroke-width: 1.0;"/><path d="M189.2031,154.7813 L189.2031,161.2969 L190.9219,161.2969 C191.375,161.2969 191.5156,161.3281 191.6875,161.4531 C191.9219,161.625 192.0313,161.875 192.0313,162.1563 C192.0313,162.7188 191.6719,163 190.9219,163 L185.7813,163 C185.375,163 185.1719,162.9531 185.0156,162.8281 C184.7969,162.6719 184.6563,162.4063 184.6563,162.1563 C184.6563,161.8594 184.8125,161.5781 185.0625,161.4219 C185.2188,161.3125 185.3438,161.2969 185.7813,161.2969 L187.5,161.2969 L187.5,154.7813 L185.7813,154.7813 C185.3594,154.7813 185.1719,154.75 185.0156,154.6406 C184.7969,154.4688 184.6563,154.2188 184.6563,153.9375 C184.6563,153.6563 184.8125,153.3594 185.0625,153.2031 C185.2188,153.1094 185.3438,153.0938 185.7813,153.0938 L190.9219,153.0938 C191.375,153.0938 191.5156,153.125 191.6875,153.2344 C191.9219,153.4063 192.0313,153.6719 192.0313,153.9375 C192.0313,154.2344 191.8906,154.5156 191.625,154.6719 C191.5,154.75 191.3125,154.7813 190.9219,154.7813 Z "/><text fill="#000000" font-family="sans-serif" font-size="12" font-style="italic" lengthAdjust="spacingAndGlyphs" textLength="66" x="208.75" y="162.1543">IHttpClient</text><line style="stroke: #A80036; stroke-width: 1.5;" x1="48" x2="403" y1="174" y2="174"/><line style="stroke: #A80036; stroke-width: 1.5;" x1="48" x2="403" y1="182" y2="182"/><text fill="#000000" font-family="sans-serif" font-size="11" lengthAdjust="spacingAndGlyphs" textLength="345" x="53" y="196.2104">request(api: ProcessedApiDescriptor): Promise&lt;IResponse&gt;</text><!--MD5=[b846e8e32b764e905f3d7de00349b677]
class WebHttpClient--><rect fill="#FEFECE" filter="url(#f1k7d6a5w4h2k3)" height="48" id="WebHttpClient" style="stroke: #A80036; stroke-width: 1.5;" width="121" x="6" y="263"/><ellipse cx="21" cy="279" fill="#ADD1B2" rx="11" ry="11" style="stroke: #A80036; stroke-width: 1.0;"/><path d="M23.3438,274.6719 L23.5156,274.75 C23.7344,274.4375 23.9375,274.3438 24.2344,274.3438 C24.5313,274.3438 24.8125,274.4844 24.9688,274.75 C25.0625,274.9063 25.0781,275.0313 25.0781,275.4688 L25.0781,276.8906 C25.0781,277.3125 25.0469,277.5 24.9375,277.6563 C24.7656,277.875 24.5,278.0156 24.2344,278.0156 C24.0156,278.0156 23.7813,277.9063 23.6406,277.7656 C23.5,277.6406 23.4688,277.5156 23.4063,277.1094 C23.3125,276.7031 23.1406,276.4844 22.6563,276.2031 C22.1875,275.9531 21.5781,275.7969 21,275.7969 C19.2656,275.7969 18.0156,277.1094 18.0156,278.8906 L18.0156,279.9844 C18.0156,281.6875 19.3125,282.7813 21.3594,282.7813 C22.125,282.7813 22.8125,282.6563 23.2344,282.3906 C23.4219,282.2969 23.4219,282.2969 23.875,281.8125 C24.0625,281.625 24.2656,281.5469 24.4844,281.5469 C24.9531,281.5469 25.3438,281.9375 25.3438,282.3906 C25.3438,282.7813 25.0156,283.2344 24.4375,283.6406 C23.6875,284.1875 22.5313,284.4844 21.3125,284.4844 C18.4219,284.4844 16.3125,282.5938 16.3125,280.0156 L16.3125,278.8906 C16.3125,276.1719 18.3125,274.0938 20.9375,274.0938 C21.8125,274.0938 22.4063,274.2344 23.3438,274.6719 Z "/><text fill="#000000" font-family="sans-serif" font-size="12" lengthAdjust="spacingAndGlyphs" textLength="89" x="35" y="283.1543">WebHttpClient</text><line style="stroke: #A80036; stroke-width: 1.5;" x1="7" x2="126" y1="295" y2="295"/><line style="stroke: #A80036; stroke-width: 1.5;" x1="7" x2="126" y1="303" y2="303"/><path d="M30,371 L30,396.1328 A0,0 0 0 0 30,396.1328 L103,396.1328 A0,0 0 0 0 103,396.1328 L103,381 L93,371 L70.5,371 L66.5,311.3596 L62.5,371 L30,371 A0,0 0 0 0 30,371 " fill="#FBFB77" filter="url(#f1k7d6a5w4h2k3)" style="stroke: #A80036; stroke-width: 1.0;"/><path d="M93,371 L93,381 L103,381 L93,371 " fill="#FBFB77" style="stroke: #A80036; stroke-width: 1.0;"/><text fill="#000000" font-family="sans-serif" font-size="13" lengthAdjust="spacingAndGlyphs" textLength="52" x="36" y="388.0669">浏览器端</text><!--MD5=[dadc3f2bdf2a463d87619fc3d751bba1]
class NodeHttpClient--><rect fill="#FEFECE" filter="url(#f1k7d6a5w4h2k3)" height="48" id="NodeHttpClient" style="stroke: #A80036; stroke-width: 1.5;" width="127" x="162" y="263"/><ellipse cx="177" cy="279" fill="#ADD1B2" rx="11" ry="11" style="stroke: #A80036; stroke-width: 1.0;"/><path d="M179.3438,274.6719 L179.5156,274.75 C179.7344,274.4375 179.9375,274.3438 180.2344,274.3438 C180.5313,274.3438 180.8125,274.4844 180.9688,274.75 C181.0625,274.9063 181.0781,275.0313 181.0781,275.4688 L181.0781,276.8906 C181.0781,277.3125 181.0469,277.5 180.9375,277.6563 C180.7656,277.875 180.5,278.0156 180.2344,278.0156 C180.0156,278.0156 179.7813,277.9063 179.6406,277.7656 C179.5,277.6406 179.4688,277.5156 179.4063,277.1094 C179.3125,276.7031 179.1406,276.4844 178.6563,276.2031 C178.1875,275.9531 177.5781,275.7969 177,275.7969 C175.2656,275.7969 174.0156,277.1094 174.0156,278.8906 L174.0156,279.9844 C174.0156,281.6875 175.3125,282.7813 177.3594,282.7813 C178.125,282.7813 178.8125,282.6563 179.2344,282.3906 C179.4219,282.2969 179.4219,282.2969 179.875,281.8125 C180.0625,281.625 180.2656,281.5469 180.4844,281.5469 C180.9531,281.5469 181.3438,281.9375 181.3438,282.3906 C181.3438,282.7813 181.0156,283.2344 180.4375,283.6406 C179.6875,284.1875 178.5313,284.4844 177.3125,284.4844 C174.4219,284.4844 172.3125,282.5938 172.3125,280.0156 L172.3125,278.8906 C172.3125,276.1719 174.3125,274.0938 176.9375,274.0938 C177.8125,274.0938 178.4063,274.2344 179.3438,274.6719 Z "/><text fill="#000000" font-family="sans-serif" font-size="12" lengthAdjust="spacingAndGlyphs" textLength="95" x="191" y="283.1543">NodeHttpClient</text><line style="stroke: #A80036; stroke-width: 1.5;" x1="163" x2="288" y1="295" y2="295"/><line style="stroke: #A80036; stroke-width: 1.5;" x1="163" x2="288" y1="303" y2="303"/><path d="M185.5,371 L185.5,396.1328 A0,0 0 0 0 185.5,396.1328 L265.5,396.1328 A0,0 0 0 0 265.5,396.1328 L265.5,381 L255.5,371 L229.5,371 L225.5,311.3596 L221.5,371 L185.5,371 A0,0 0 0 0 185.5,371 " fill="#FBFB77" filter="url(#f1k7d6a5w4h2k3)" style="stroke: #A80036; stroke-width: 1.0;"/><path d="M255.5,371 L255.5,381 L265.5,381 L255.5,371 " fill="#FBFB77" style="stroke: #A80036; stroke-width: 1.0;"/><text fill="#000000" font-family="sans-serif" font-size="13" lengthAdjust="spacingAndGlyphs" textLength="59" x="191.5" y="388.0669">node.js端</text><!--MD5=[8282a01247493750fff2e3f2f159e86c]
class MinaHttpClient--><rect fill="#FEFECE" filter="url(#f1k7d6a5w4h2k3)" height="48" id="MinaHttpClient" style="stroke: #A80036; stroke-width: 1.5;" width="123" x="324" y="263"/><ellipse cx="339" cy="279" fill="#ADD1B2" rx="11" ry="11" style="stroke: #A80036; stroke-width: 1.0;"/><path d="M341.3438,274.6719 L341.5156,274.75 C341.7344,274.4375 341.9375,274.3438 342.2344,274.3438 C342.5313,274.3438 342.8125,274.4844 342.9688,274.75 C343.0625,274.9063 343.0781,275.0313 343.0781,275.4688 L343.0781,276.8906 C343.0781,277.3125 343.0469,277.5 342.9375,277.6563 C342.7656,277.875 342.5,278.0156 342.2344,278.0156 C342.0156,278.0156 341.7813,277.9063 341.6406,277.7656 C341.5,277.6406 341.4688,277.5156 341.4063,277.1094 C341.3125,276.7031 341.1406,276.4844 340.6563,276.2031 C340.1875,275.9531 339.5781,275.7969 339,275.7969 C337.2656,275.7969 336.0156,277.1094 336.0156,278.8906 L336.0156,279.9844 C336.0156,281.6875 337.3125,282.7813 339.3594,282.7813 C340.125,282.7813 340.8125,282.6563 341.2344,282.3906 C341.4219,282.2969 341.4219,282.2969 341.875,281.8125 C342.0625,281.625 342.2656,281.5469 342.4844,281.5469 C342.9531,281.5469 343.3438,281.9375 343.3438,282.3906 C343.3438,282.7813 343.0156,283.2344 342.4375,283.6406 C341.6875,284.1875 340.5313,284.4844 339.3125,284.4844 C336.4219,284.4844 334.3125,282.5938 334.3125,280.0156 L334.3125,278.8906 C334.3125,276.1719 336.3125,274.0938 338.9375,274.0938 C339.8125,274.0938 340.4063,274.2344 341.3438,274.6719 Z "/><text fill="#000000" font-family="sans-serif" font-size="12" lengthAdjust="spacingAndGlyphs" textLength="91" x="353" y="283.1543">MinaHttpClient</text><line style="stroke: #A80036; stroke-width: 1.5;" x1="325" x2="446" y1="295" y2="295"/><line style="stroke: #A80036; stroke-width: 1.5;" x1="325" x2="446" y1="303" y2="303"/><path d="M349,371 L349,396.1328 A0,0 0 0 0 349,396.1328 L422,396.1328 A0,0 0 0 0 422,396.1328 L422,381 L412,371 L389.5,371 L385.5,311.3596 L381.5,371 L349,371 A0,0 0 0 0 349,371 " fill="#FBFB77" filter="url(#f1k7d6a5w4h2k3)" style="stroke: #A80036; stroke-width: 1.0;"/><path d="M412,371 L412,381 L422,381 L412,371 " fill="#FBFB77" style="stroke: #A80036; stroke-width: 1.0;"/><text fill="#000000" font-family="sans-serif" font-size="13" lengthAdjust="spacingAndGlyphs" textLength="52" x="355" y="388.0669">小程序端</text><!--MD5=[6a03c80642fa8fccd12ae6b26832062f]
class ApiSharp--><rect fill="#FEFECE" filter="url(#f1k7d6a5w4h2k3)" height="73.6094" id="ApiSharp" style="stroke: #A80036; stroke-width: 1.5;" width="311" x="70" y="8"/><ellipse cx="193.25" cy="24" fill="#ADD1B2" rx="11" ry="11" style="stroke: #A80036; stroke-width: 1.0;"/><path d="M195.5938,19.6719 L195.7656,19.75 C195.9844,19.4375 196.1875,19.3438 196.4844,19.3438 C196.7813,19.3438 197.0625,19.4844 197.2188,19.75 C197.3125,19.9063 197.3281,20.0313 197.3281,20.4688 L197.3281,21.8906 C197.3281,22.3125 197.2969,22.5 197.1875,22.6563 C197.0156,22.875 196.75,23.0156 196.4844,23.0156 C196.2656,23.0156 196.0313,22.9063 195.8906,22.7656 C195.75,22.6406 195.7188,22.5156 195.6563,22.1094 C195.5625,21.7031 195.3906,21.4844 194.9063,21.2031 C194.4375,20.9531 193.8281,20.7969 193.25,20.7969 C191.5156,20.7969 190.2656,22.1094 190.2656,23.8906 L190.2656,24.9844 C190.2656,26.6875 191.5625,27.7813 193.6094,27.7813 C194.375,27.7813 195.0625,27.6563 195.4844,27.3906 C195.6719,27.2969 195.6719,27.2969 196.125,26.8125 C196.3125,26.625 196.5156,26.5469 196.7344,26.5469 C197.2031,26.5469 197.5938,26.9375 197.5938,27.3906 C197.5938,27.7813 197.2656,28.2344 196.6875,28.6406 C195.9375,29.1875 194.7813,29.4844 193.5625,29.4844 C190.6719,29.4844 188.5625,27.5938 188.5625,25.0156 L188.5625,23.8906 C188.5625,21.1719 190.5625,19.0938 193.1875,19.0938 C194.0625,19.0938 194.6563,19.2344 195.5938,19.6719 Z "/><text fill="#000000" font-family="sans-serif" font-size="12" lengthAdjust="spacingAndGlyphs" textLength="56" x="213.75" y="28.1543">ApiSharp</text><line style="stroke: #A80036; stroke-width: 1.5;" x1="71" x2="380" y1="40" y2="40"/><rect fill="none" height="6" style="stroke: #C82930; stroke-width: 1.0;" width="6" x="78" y="48"/><text fill="#000000" font-family="sans-serif" font-size="11" lengthAdjust="spacingAndGlyphs" textLength="120" x="90" y="54.2104">httpClient: IHttpClient</text><line style="stroke: #A80036; stroke-width: 1.5;" x1="71" x2="380" y1="60.8047" y2="60.8047"/><ellipse cx="81" cy="71.8047" fill="#84BE84" rx="3" ry="3" style="stroke: #038048; stroke-width: 1.0;"/><text fill="#000000" font-family="sans-serif" font-size="11" lengthAdjust="spacingAndGlyphs" textLength="285" x="90" y="75.0151">request(api: ApiDescriptor): Promise&lt;IResponse&gt;</text><!--MD5=[317bd98af21e43789e3c56a701f9e2bd]
link ApiSharp to IHttpClient--><path d="M225.5,82.3 C225.5,99.357 225.5,119.606 225.5,136.497 " fill="none" id="ApiSharp-&gt;IHttpClient" style="stroke: #A80036; stroke-width: 1.0;"/><polygon fill="#A80036" points="225.5,141.624,229.5,132.624,225.5,136.624,221.5,132.624,225.5,141.624" style="stroke: #A80036; stroke-width: 1.0;"/><!--MD5=[9431e20d27136acd65288dff356d73a9]
reverse link IHttpClient to WebHttpClient--><path d="M167.211,214.742 C144.28,230.967 118.809,248.989 99.219,262.85 " fill="none" id="IHttpClient&lt;-WebHttpClient" style="stroke: #A80036; stroke-width: 1.0;"/><polygon fill="none" points="163.355,208.896,183.725,203.058,171.441,220.324,163.355,208.896" style="stroke: #A80036; stroke-width: 1.0;"/><!--MD5=[bbf69623a78c45a921d654b99ddab615]
reverse link IHttpClient to NodeHttpClient--><path d="M225.5,223.107 C225.5,236.876 225.5,251.185 225.5,262.669 " fill="none" id="IHttpClient&lt;-NodeHttpClient" style="stroke: #A80036; stroke-width: 1.0;"/><polygon fill="none" points="218.5,223.058,225.5,203.058,232.5,223.058,218.5,223.058" style="stroke: #A80036; stroke-width: 1.0;"/><!--MD5=[130501cb94378652ff3b9527d906a838]
reverse link IHttpClient to MinaHttpClient--><path d="M284.155,214.742 C307.231,230.967 332.862,248.989 352.575,262.85 " fill="none" id="IHttpClient&lt;-MinaHttpClient" style="stroke: #A80036; stroke-width: 1.0;"/><polygon fill="none" points="279.872,220.288,267.538,203.058,287.925,208.835,279.872,220.288" style="stroke: #A80036; stroke-width: 1.0;"/><!--MD5=[bffb5579748dd5e6d44e8fdba98f7cab]
@startuml
interface IHttpClient {
  request(api: ProcessedApiDescriptor): Promise<IResponse>
}
class WebHttpClient
note bottom of WebHttpClient: 浏览器端
class NodeHttpClient
note bottom of NodeHttpClient: node.js端
class MinaHttpClient
note bottom of MinaHttpClient: 小程序端

class ApiSharp {
  -httpClient: IHttpClient
  +request(api: ApiDescriptor): Promise<IResponse>
}

ApiSharp - -> IHttpClient
IHttpClient <|- - WebHttpClient 
IHttpClient <|- - NodeHttpClient
IHttpClient <|- - MinaHttpClient
@enduml

PlantUML version 1.2019.10(Fri Sep 13 20:53:03 UTC 2019)
(GPL source distribution)
Java Runtime: Java(TM) SE Runtime Environment
JVM: Java HotSpot(TM) 64-Bit Server VM
Java Version: 1.7.0_25-b15
Operating System: Linux
Default Encoding: UTF-8
Language: en
Country: US
--></g></svg>